<svg xmlns="http://www.w3.org/2000/svg" viewBox="0 0 828.92 199.26"><defs><style>.cls-1{fill:#e50913;}</style></defs><g id="Capa_2" data-name="Capa 2"><g id="Capa_1-2" data-name="Capa 1"><path class="cls-1" d="M0,32.26Q27.63,28,55.31,24.1L75.56,94.51c3.5,12.2,6.54,24.54,9.55,36.86l.46-.06c3-13.09,6-26.19,9.32-39.22q10.24-37.76,20.51-75.51,28-3.12,56-5.76v167q-18.91,1.74-37.81,3.75V97.49c.09-11.16.41-22.32.7-33.48l-.47,0c-2.44,10.66-4.82,21.35-7.7,31.9q-12,44.58-24,89.16-17,2.06-34,4.26L44.38,106.43c-2.9-10-5.26-20.1-7.68-30.2l-.46.07c.29,11.17.62,22.35.7,33.53v83.85Q18.45,196.33,0,199.26Z"/><path class="cls-1" d="M191,135V56.5Q210,54.9,228.9,53.56V124.1c-.69,10.93,6.44,20.36,18,19.12A23.83,23.83,0,0,0,268,117.91V51.11q19.08-1.05,38.16-1.84V168.86q-18.27.75-36.52,1.75V155.89l-.7,0c-8.05,12.33-21.56,19.1-35.8,20.43C207.45,178.76,191.15,159.5,191,135Z"/><path class="cls-1" d="M324.39,48.59q18.38-.63,36.77-1V63.94h.71c8.42-12.14,22-20.65,37-20.33,24.87.53,42.44,20.59,41.7,45.39v77.78q-19.09-.18-38.19-.1V96.6c.45-11.21-6.7-21.63-18.74-21.1-13.73.6-20.86,12.78-21.08,25.55v66.1q-19.1.38-38.18,1Z"/><path class="cls-1" d="M457.92,0Q477,.32,496.1.9V31.73q-19.1-.59-38.18-.9Zm0,47.41q19.09.31,38.18.91V167.9q-19.1-.59-38.18-.9Z"/><path class="cls-1" d="M523.26,73.58c-6.18-.25-9.27-.37-15.45-.59V48.7c6.18.22,9.27.34,15.45.59V40.65c0-10.28,2.34-17.89,7-23.53,11.47-16.07,37-13.36,53.59-11.35V32.63c-10.31-1.34-22.86-.85-22.46,12.67v5.84c9,.5,13.48.76,22.46,1.34V76.77c-9-.57-13.48-.84-22.46-1.34v95.29q-19.08-1-38.16-1.84ZM596,5.87q19.31,1.34,38.58,2.94v167q-19.27-1.62-38.58-2.94Z"/><path class="cls-1" d="M653.07,10.41q19,1.73,38,3.72V45q-19-2-38-3.72Zm0,47.41q19,1.73,38,3.72V181.13q-19-2-38-3.72Z"/><path class="cls-1" d="M743.34,124.31q-18.71-30.63-37.52-61.18,21.69,2.45,43.35,5.15,8.85,16.57,17.69,33.15l.46.06L784.07,73q19.89,2.79,39.74,5.9-17.7,25.48-35.32,51,20.28,34.65,40.43,69.38Q807,195.84,785,192.68q-9.76-19.22-19.55-38.42l-.46-.06q-10.85,16.45-21.66,32.94-20.73-2.55-41.49-4.86Q722.54,153.26,743.34,124.31Z"/></g></g></svg>